HIERARCHY
ROOT root
{
	OFFSET 0.000000 0.000000 0.000000
	CHANNELS 6 Xposition Yposition Zposition Zrotation Yrotation Xrotation
	JOINT lhip
	{
		OFFSET 0.058581 -0.082280 -0.017664
		CHANNELS 3 Zrotation Yrotation Xrotation
		JOINT lknee
		{
			OFFSET 0.043451 -0.386469 0.008037
			CHANNELS 3 Zrotation Yrotation Xrotation
			JOINT lankle
			{
				OFFSET -0.014790 -0.426874 -0.037428
				CHANNELS 3 Zrotation Yrotation Xrotation
				JOINT ltoe
				{
					OFFSET 0.041054 -0.060286 0.122042
					CHANNELS 3 Zrotation Yrotation Xrotation
					End Site
					{
						OFFSET 0.000000 0.000000 0.000000
					}
				}
			}
		}
	}
	JOINT rhip
	{
		OFFSET -0.060310 -0.090513 -0.013543
		CHANNELS 3 Zrotation Yrotation Xrotation
		JOINT rknee
		{
			OFFSET -0.043257 -0.383688 -0.004843
			CHANNELS 3 Zrotation Yrotation Xrotation
			JOINT rankle
			{
				OFFSET 0.019056 -0.420046 -0.034562
				CHANNELS 3 Zrotation Yrotation Xrotation
				JOINT rtoe
				{
					OFFSET -0.034840 -0.062106 0.130323
					CHANNELS 3 Zrotation Yrotation Xrotation
					End Site
					{
						OFFSET 0.000000 0.000000 0.000000
					}
				}
			}
		}
	}
	JOINT lowerback
	{
		OFFSET 0.004439 0.124404 -0.038385
		CHANNELS 3 Zrotation Yrotation Xrotation
		JOINT upperback
		{
			OFFSET 0.004488 0.137956 0.026820
			CHANNELS 3 Zrotation Yrotation Xrotation
			JOINT chest
			{
				OFFSET -0.002265 0.056032 0.002855
				CHANNELS 3 Zrotation Yrotation Xrotation
				JOINT lowerneck
				{
					OFFSET -0.013390 0.211636 -0.033468
					CHANNELS 3 Zrotation Yrotation Xrotation
					JOINT upperneck
					{
						OFFSET 0.010113 0.088937 0.050410
						CHANNELS 3 Zrotation Yrotation Xrotation
						End Site
						{
							OFFSET 0.000000 0.000000 0.000000
						}
					}
				}
				JOINT lclavicle
				{
					OFFSET 0.071702 0.114000 -0.018898
					CHANNELS 3 Zrotation Yrotation Xrotation
					JOINT lshoulder
					{
						OFFSET 0.122921 0.045205 -0.019046
						CHANNELS 3 Zrotation Yrotation Xrotation
						JOINT lelbow
						{
							OFFSET 0.255332 -0.015649 -0.022946
							CHANNELS 3 Zrotation Yrotation Xrotation
							JOINT lwrist
							{
								OFFSET 0.265709 0.012698 -0.007375
								CHANNELS 3 Zrotation Yrotation Xrotation
								End Site
								{
									OFFSET 0.000000 0.000000 0.000000
								}
							}
						}
					}
				}
				JOINT rclavicle
				{
					OFFSET -0.082954 0.112472 -0.023707
					CHANNELS 3 Zrotation Yrotation Xrotation
					JOINT rshoulder
					{
						OFFSET -0.113228 0.046853 -0.008472
						CHANNELS 3 Zrotation Yrotation Xrotation
						JOINT relbow
						{
							OFFSET -0.260127 -0.014369 -0.031269
							CHANNELS 3 Zrotation Yrotation Xrotation
							JOINT rwrist
							{
								OFFSET -0.269108 0.006794 -0.006027
								CHANNELS 3 Zrotation Yrotation Xrotation
								End Site
								{
									OFFSET 0.000000 0.000000 0.000000
								}
							}
						}
					}
				}
			}
		}
	}
}
MOTION
Frames: 14
Frame Time: 0.033333
0.153846 -0.406038 0.969138 -10.143654 2.992280 90.770422 7.697880 6.159583 -30.311101 -7.412185 -3.227788 12.159354 -20.293207 -4.829220 12.452852 0.000000 -0.000000 0.000000 0.997945 -25.740493 -4.872501 9.133626 -6.220628 16.197416 -0.245896 11.361419 -22.603483 0.000000 -0.000000 0.000000 0.631723 9.007578 11.611910 0.943158 -2.732509 -6.193600 2.646827 0.590440 -1.091178 3.126691 7.054381 -9.556165 3.388046 -4.956927 15.795519 -26.343781 -1.257864 -6.516524 -50.001466 -11.376742 -1.027417 30.948364 -24.738652 -22.301650 19.712677 -3.973448 -3.349907 26.483055 5.720196 -0.995703 49.262684 10.524242 3.608695 0.960020 19.263520 9.316969 -14.945698 6.694763 1.906620 
0.155934 -0.412828 0.970860 -8.303254 2.740075 88.210110 7.714491 2.489527 -26.193578 -6.912804 -3.960088 9.954969 -20.131642 -0.829605 6.427137 0.000000 -0.000000 0.000000 2.628294 -8.433779 2.400095 9.324533 -9.778108 4.932479 0.055789 -3.508136 -20.063903 0.000000 -0.000000 0.000000 0.541940 6.201989 15.063322 1.200178 -1.841231 -6.995374 2.587577 0.972334 -1.150678 3.558525 5.316134 -8.460316 2.924562 -3.582780 14.296213 -26.909468 -1.238894 -5.214581 -51.284362 -11.506676 2.557369 27.246832 -21.204421 -19.330232 31.964370 -15.525954 0.374836 25.944020 5.705894 -2.756198 49.754348 8.839138 8.570972 0.099632 19.482659 8.453205 -14.330117 5.660297 -1.424693 
0.156431 -0.415259 0.970643 -8.340973 2.509133 87.926695 7.432315 2.091274 -25.720038 -6.185122 -3.377948 10.126863 -20.859141 3.298798 3.117484 0.000000 -0.000000 0.000000 2.387121 -7.205236 3.119902 9.461621 -9.807163 4.099535 0.921521 -4.433723 -19.550837 0.000000 -0.000000 0.000000 0.362382 6.385904 15.305727 1.536327 -2.011373 -7.202215 2.371882 1.146332 -0.757275 4.071478 6.057297 -8.331129 2.319643 -4.424731 13.565241 -26.596408 -1.496745 -4.618985 -52.620648 -9.084952 7.340764 17.488289 -20.742009 -8.741237 34.469724 -14.688997 -2.173512 26.276651 5.508857 -2.872427 49.179563 9.073321 9.931438 0.409560 20.069826 7.528439 -20.969181 6.525562 -2.025823 
0.155209 -0.417124 0.969871 -8.573514 2.429917 87.945990 7.512285 2.226238 -25.616355 -6.449176 -3.639540 10.299909 -20.194716 3.304070 2.404590 0.000000 -0.000000 0.000000 2.406465 -7.146015 3.134725 9.362500 -9.474927 4.108272 1.016626 -4.580974 -19.374161 0.000000 -0.000000 0.000000 0.192216 6.548887 15.351391 1.712199 -2.065241 -7.533267 2.346320 1.243212 -0.508404 4.222247 6.334323 -8.467264 2.206020 -4.658747 13.448321 -26.710325 -1.805194 -4.663845 -52.594212 -7.875725 8.955466 11.360961 -20.056344 -2.978596 30.390510 -12.831207 0.623533 26.107403 5.568535 -2.955476 49.376941 8.863513 11.011744 -0.197188 20.803174 8.121213 -15.879204 4.808024 -2.013497 
0.155025 -0.417495 0.969913 -8.595383 2.368671 87.858358 7.584053 1.920729 -25.355748 -6.567566 -3.683401 10.042800 -19.656518 3.684326 2.188878 0.000000 -0.000000 0.000000 2.344047 -7.137263 3.291023 9.388103 -9.318725 4.020334 0.886168 -4.717341 -19.191841 0.000000 -0.000000 0.000000 0.260951 6.448721 15.538855 1.679085 -1.994697 -7.728635 2.256128 1.226746 -0.428421 4.257311 6.601797 -8.333816 2.137213 -4.925741 13.254621 -26.850490 -1.501010 -4.457686 -52.289070 -8.194505 9.046628 11.113796 -20.185470 -2.632765 29.456498 -12.219475 0.421850 26.220259 5.343559 -2.769867 49.568175 9.282707 11.462536 -0.795515 20.635398 7.904826 -14.964720 4.986986 -2.231547 
0.154291 -0.418255 0.969676 -8.592037 2.376139 88.043389 8.067158 1.090414 -25.304831 -7.014026 -3.476074 9.710395 -18.311932 4.322323 1.941399 0.000000 -0.000000 0.000000 2.534472 -6.856651 3.262830 9.434527 -8.994442 3.692073 0.032738 -5.609551 -18.745396 0.000000 -0.000000 0.000000 0.385197 6.234119 15.269647 1.853446 -1.739332 -7.628268 2.000420 1.047611 -0.617678 4.373600 7.538933 -7.785816 1.622010 -5.711314 12.745404 -26.543261 -0.989838 -3.204391 -52.145515 -8.175336 9.950804 9.600768 -21.567728 0.595560 10.642260 -5.527432 -5.260955 26.097509 4.837228 -1.961611 50.260489 9.927662 12.770442 -3.209523 21.473277 7.606392 -6.132558 3.348384 -3.580868 
0.152826 -0.418415 0.968590 -8.830284 2.298878 88.426824 8.176269 1.255677 -25.821665 -7.100386 -3.223326 10.000811 -17.875974 4.237788 1.852571 0.000000 -0.000000 0.000000 2.462790 -7.848994 2.521186 9.326435 -8.488833 4.440937 0.245777 -4.808261 -19.073007 0.000000 -0.000000 0.000000 0.139639 6.489837 14.950411 1.932003 -1.797051 -7.943190 2.030961 1.059883 -0.304877 4.501323 7.698677 -8.173510 1.676885 -5.960675 12.857110 -26.464236 -0.933335 -3.409452 -52.003391 -8.586703 9.852865 9.214887 -21.599049 0.169728 13.676999 -6.693771 -3.855431 26.087042 4.675412 -1.993348 50.467584 10.195332 12.875776 -3.110106 21.683037 7.537719 -7.676581 3.518002 -3.452035 
0.152859 -0.420189 0.969046 -8.615860 2.138002 88.090050 7.900684 0.877719 -25.140858 -6.977567 -3.486866 9.654021 -17.662593 4.413010 1.564624 0.000000 -0.000000 0.000000 2.375752 -6.953718 3.300002 9.329648 -8.806536 3.764151 0.288388 -5.438928 -18.715284 0.000000 -0.000000 0.000000 0.161366 6.246856 15.291776 1.883508 -1.840415 -7.868158 2.049981 1.068447 -0.350479 4.513093 7.446247 -7.974078 1.686074 -5.698234 12.709953 -26.652548 -1.107013 -3.432390 -51.906574 -8.661588 9.704060 9.364935 -21.273688 -0.142047 13.209735 -6.757307 -3.740863 26.012849 4.781993 -2.160760 50.502090 9.987495 13.025919 -3.238675 21.909539 7.471987 -7.270804 3.259680 -3.564206 
0.151853 -0.420573 0.968609 -8.717125 2.122059 88.203456 8.016286 0.908829 -25.244769 -7.071377 -3.467111 9.703500 -17.605052 4.395251 1.390181 0.000000 -0.000000 0.000000 2.473921 -7.064673 3.146994 9.222990 -8.697128 3.821615 0.343117 -5.474471 -18.864456 0.000000 -0.000000 0.000000 0.037170 6.344521 15.160805 1.948993 -1.823926 -7.880305 2.128757 1.064367 -0.330676 4.538699 7.533952 -8.027047 1.689976 -5.843010 12.782720 -26.565715 -1.168813 -3.350870 -51.977534 -8.832864 9.661527 9.260072 -21.339390 -0.203594 13.549889 -6.620456 -3.926179 25.938408 4.775910 -2.070502 50.602360 10.111639 13.098710 -3.309848 21.910670 7.556710 -7.463999 3.286456 -3.654335 
0.150548 -0.420420 0.967761 -8.918830 2.126305 88.480169 8.185877 1.123404 -25.582482 -7.170664 -3.347992 9.791804 -17.559398 4.333698 1.533405 0.000000 -0.000000 0.000000 2.622622 -7.782677 2.647864 9.014725 -8.185706 4.220554 0.358604 -5.022436 -19.105935 0.000000 -0.000000 0.000000 -0.056457 6.585521 15.001116 2.003906 -1.830742 -8.181011 2.172979 0.987668 -0.229202 4.598747 7.742221 -8.041522 1.685946 -5.833252 12.962319 -26.414699 -1.249744 -3.215210 -52.081732 -8.911813 9.662811 9.164554 -21.314800 -0.044985 13.850000 -6.884065 -3.986235 25.784450 4.799666 -1.951691 50.885567 10.176269 13.117072 -3.468485 21.759154 7.654961 -7.445240 3.314531 -3.654523 
0.149794 -0.420760 0.967706 -8.950333 2.070317 88.497070 8.164837 1.152805 -25.570981 -7.167415 -3.379780 9.813944 -17.376438 4.364768 1.405003 0.000000 -0.000000 0.000000 2.669424 -7.836201 2.641419 8.916965 -8.046064 4.238385 0.356403 -4.969152 -19.165446 0.000000 -0.000000 0.000000 -0.103294 6.555926 14.971164 1.986445 -1.849934 -8.207713 2.177351 1.032207 -0.296962 4.594205 7.791839 -7.847415 1.739052 -5.789281 12.903461 -26.407718 -1.324385 -3.137758 -52.016214 -8.836371 9.657445 9.076364 -21.639019 0.086368 13.871178 -6.740322 -4.021152 25.760424 4.900820 -1.796170 50.873198 10.154231 13.018429 -3.401969 21.603865 7.868513 -7.806949 3.269152 -3.670696 
0.149669 -0.421613 0.968118 -8.827654 1.974179 88.287808 7.978089 0.964959 -25.251954 -7.036498 -3.526697 9.754917 -17.065765 4.547003 1.393131 0.000000 -0.000000 0.000000 2.592687 -7.249404 3.090915 8.998050 -8.273760 3.878746 0.321921 -5.385717 -19.053196 0.000000 -0.000000 0.000000 -0.069459 6.386835 15.123783 1.933183 -1.847161 -8.126714 2.147488 1.075183 -0.342736 4.566937 7.689805 -7.657766 1.841794 -5.757415 12.798686 -26.570360 -1.362328 -3.165541 -51.917713 -8.856366 9.706931 9.106544 -21.935116 -0.002398 14.064253 -6.653239 -3.974294 25.846430 4.921813 -1.792158 50.738280 9.926967 13.022584 -3.355281 21.774883 7.535644 -8.120689 3.087241 -3.726454 
0.149177 -0.421775 0.968248 -8.854804 1.931235 88.329830 7.985350 0.940281 -25.280282 -7.028816 -3.483398 9.791269 -16.843275 4.566535 1.450163 0.000000 -0.000000 0.000000 2.551526 -7.272622 3.026982 9.043406 -8.333017 3.947168 0.345021 -5.310364 -19.077821 0.000000 -0.000000 0.000000 -0.059482 6.376543 15.098840 1.920456 -1.837265 -8.140019 2.141880 1.072218 -0.333805 4.641179 7.707010 -7.675944 1.777689 -5.744168 12.869424 -26.557087 -1.336748 -3.333392 -51.931626 -8.904115 9.799741 8.984949 -22.053108 0.034148 14.172089 -6.565970 -4.119754 25.743351 4.809106 -1.886629 50.866015 9.971600 13.029720 -3.459444 21.692015 7.278076 -8.020694 2.993946 -3.855682 
0.148866 -0.422677 0.968843 -8.690668 1.854113 88.131452 7.813818 0.895323 -25.016582 -7.008337 -3.624832 9.859722 -16.940727 4.529038 1.420741 0.000000 -0.000000 0.000000 2.526483 -6.822786 3.519703 9.081608 -8.561583 3.441194 0.456580 -5.635403 -18.936630 0.000000 -0.000000 0.000000 -0.063261 6.236286 15.313849 1.898356 -1.884556 -8.170031 2.161945 1.063626 -0.413785 4.583222 7.571399 -7.523188 1.823994 -5.654367 12.817567 -26.539825 -1.476650 -3.201588 -51.920806 -8.911702 9.753033 9.040725 -21.964042 -0.034359 13.849947 -6.506549 -4.409750 25.683619 4.879194 -1.856281 50.874877 9.811435 13.018755 -3.586753 21.564289 7.221911 -7.853867 2.968075 -3.992539 
